# xmcd
#
# Track frame offsets:
#  150
#  14016
#  28739
#  42702
#  58321
#  72186
#  86830
#  101960
#  119912
#  140783
#  153798
#  167956
#  182600
#
# Disc length: 2646 seconds
#
# Revision: 0
# Processed by: cddbd v1.5.1PL2 Copyright (c) Steve Scherf et al.
# Submitted via: Collectorz.com_Music_Collector 6.9
#
DISCID=cb0a540d
DTITLE=Hill Blues Unit - Time Will Tell
DYEAR=2003
DGENRE=Country Blues - General Blues
TTITLE0=Time Will Tell
TTITLE1=Information Blues
TTITLE2=I Went To The Mardi Gras
TTITLE3=I Wonder
TTITLE4=Strange Things Happens
TTITLE5=Whole Lotta Lovin
TTITLE6=I Know Your Wig Is Gone
TTITLE7=Nobody Knows You When You're Down And Out
TTITLE8=Everything I Do Is Wrong
TTITLE9=Kansas City
TTITLE10=Down The Road Apiece
TTITLE11=Need Your Love So Bad
TTITLE12=The King's Highway
EXTD=
EXTT0=
EXTT1=
EXTT2=
EXTT3=
EXTT4=
EXTT5=
EXTT6=
EXTT7=
EXTT8=
EXTT9=
EXTT10=
EXTT11=
EXTT12=
PLAYORDER=
